<svg id="Layer_1" data-name="Layer 1" xmlns="http://www.w3.org/2000/svg" xmlns:xlink="http://www.w3.org/1999/xlink" viewBox="0 0 256 256"><defs><style>.cls-1{fill:url(#linear-gradient);}</style><linearGradient id="linear-gradient" x1="0.5" y1="128" x2="255.5" y2="128" gradientUnits="userSpaceOnUse"><stop offset="0" stop-color="#00d4b0"/><stop offset="1" stop-color="#00f800"/></linearGradient></defs><title>checked</title><path class="cls-1" d="M.5,127.78C.32,54.66,62.33-3.07,133.89.66s125.45,63.43,121.4,134.63a127.26,127.26,0,0,1-136,119.92C50.26,250.6,0,192.32.5,127.78ZM110,149.9c-1.78-1.87-3.07-3.2-4.32-4.55-8.17-8.84-16.22-17.81-24.55-26.5-6.72-7-18.12-7.29-24.92-1s-7.7,18-1.34,25q21.5,23.76,43.5,47a17.6,17.6,0,0,0,7.55,4.6c8.66,2.55,15.52-.45,21.24-7.35q40.78-49.14,81.8-98.08c6.62-7.92,6-19-1.5-25.48-8-6.86-18.85-5.92-26,2.41q-26,30.41-51.84,60.92C123.23,134.42,116.8,141.91,110,149.9Z"/></svg>