<svg id="Layer_1" data-name="Layer 1" xmlns="http://www.w3.org/2000/svg" viewBox="0 0 256 256"><defs><style>.cls-1{fill:#ed1c24;}</style></defs><title>delete</title><path class="cls-1" d="M255.44,124.37c2.15,69.35-53.43,129-122.26,131.09C62.35,257.67,2.74,202.88.57,133.57-1.67,62.2,53,2.72,122.91.54,194.25-1.7,253.23,53.42,255.44,124.37Zm-126.64-21c-1.67-1.56-2.72-2.5-3.72-3.49Q106.45,81.26,87.81,62.63C82.5,57.35,76.14,55.48,69,57.8,55.92,62,52.23,77.94,62,88c12.07,12.35,24.38,24.48,36.58,36.71,4.24,4.25,4.25,4.27,0,8.49-12.21,12.23-24.49,24.38-36.61,36.69-7.42,7.53-7.47,18.52-.37,25.75s18.23,7.3,25.73-.06q19.11-18.76,37.86-37.86c2.48-2.52,4-2.57,6.48,0,12.3,12.54,24.75,24.93,37.2,37.31,7.83,7.79,19,8,26.42.68,7.22-7.18,7-18.24-.7-26.09S179.23,154,171.39,146.24c-5.67-5.58-11.51-11-17.48-16.68,1.68-1.85,2.58-2.92,3.57-3.9,12.39-12.45,24.83-24.84,37.18-37.33,7.68-7.76,7.92-18.78.73-26.09s-18.28-7.16-26.12.34c-4.43,4.25-8.72,8.66-13,13C147.2,84.71,138.19,93.85,128.8,103.36Z"/></svg>