<svg id="Layer_1" data-name="Layer 1" xmlns="http://www.w3.org/2000/svg" xmlns:xlink="http://www.w3.org/1999/xlink" viewBox="0 0 256 256"><defs><style>.cls-1{fill:#f2f2f2;}.cls-2{fill:url(#linear-gradient);}.cls-3{fill:url(#linear-gradient-2);}.cls-4{fill:url(#linear-gradient-3);}.cls-5{fill:url(#linear-gradient-4);}</style><linearGradient id="linear-gradient" x1="39.36" y1="180.93" x2="216.64" y2="180.93" gradientUnits="userSpaceOnUse"><stop offset="0" stop-color="#00d4b0"/><stop offset="1" stop-color="#00f800"/></linearGradient><linearGradient id="linear-gradient-2" x1="77.76" y1="75.42" x2="178.72" y2="75.42" xlink:href="#linear-gradient"/><linearGradient id="linear-gradient-3" x1="52.31" y1="134.78" x2="107.46" y2="134.78" xlink:href="#linear-gradient"/><linearGradient id="linear-gradient-4" x1="147.8" y1="133.65" x2="203.61" y2="133.65" xlink:href="#linear-gradient"/></defs><title>favicon</title><circle class="cls-1" cx="128" cy="128" r="128"/><path class="cls-2" d="M65.37,195.43H191.82c-2.93-3.26-4.73-5.45-6.71-7.46-7.6-7.71-15.57-15.09-22.68-23.22-1.74-2-.75-6.38-1-9.66,3.25-.18,7.9-1.84,9.52-.3Q193.29,176,214.62,198.2c4.19,4.36,1.47,10-4.52,10.89a33.21,33.21,0,0,1-5,.12c-51.63,0-103.25.09-154.87-.17-3.64,0-7.26-2.49-10.88-3.82,1.49-3.56,2.13-7.93,4.62-10.54C56,182,68.53,169.79,80.9,157.43c3.44-3.44,7.23-7.28,12-2.73,5.11,4.85,1.47,9-2.26,12.7-8.82,8.72-17.7,17.39-26.55,26.08Z"/><path class="cls-3" d="M127.68,62c-12.28,12.49-23.33,23.74-34.4,35-1.75,1.77-3.34,4.29-5.47,5-2.76.86-7.67,1.36-8.63,0-1.55-2.28-2-7.22-.49-9.28,3.88-5.32,9-9.7,13.75-14.4,9.21-9.23,18.5-18.38,27.67-27.64,5.14-5.18,10-5,15.09.09q20,20.06,40,40c3.56,3.56,5.24,7.64,1,11.53-3.91,3.58-7.58,1.58-10.84-1.77C153.2,87.94,141,75.51,127.68,62Z"/><path class="cls-4" d="M57.78,162.91c-1.64-1.32-4.44-2.47-5.05-4.34-.73-2.23-.56-6,.89-7.52,14.22-14.7,28.64-29.21,43.44-43.32,1.6-1.53,6.94-1.39,8.66.12s2.38,7.09,1,8.51c-14.5,15.18-29.47,29.92-44.4,44.69C61.46,161.93,59.86,162.09,57.78,162.91Z"/><path class="cls-5" d="M153.21,104.81c2.82,1.83,5.37,2.93,7.21,4.74,13.19,13,26.23,26.16,39.33,39.26,3.43,3.43,5.8,7.33,1.68,11.47s-8,1.78-11.42-1.69c-13.26-13.33-26.7-26.47-39.73-40-1.89-2-2.65-5.82-2.45-8.7C147.94,108.22,151,106.76,153.21,104.81Z"/></svg>