<svg id="Layer_1" data-name="Layer 1" xmlns="http://www.w3.org/2000/svg" viewBox="0 0 56 56"><defs><style>.cls-1{fill:#4d4d4d;}</style></defs><title>icons</title><path class="cls-1" d="M28.12,4C35,4,41.86,4,48.73,4c3.82,0,5.87,2,5.88,5.81q0,18.18,0,36.36C54.6,50,52.36,52,48.12,52c-10.59,0-21.18,0-31.76,0-2.91,0-5.82.05-8.73,0-4.22-.07-6.22-2.07-6.23-6.29q0-17.94,0-35.88C1.41,6,3.39,4,7.27,4,14.22,4,21.17,4,28.12,4ZM6.68,46.52H25.23V9.47H6.68ZM46.61,14.83H33.42V19.9H46.61Zm0,10.66H33.41v5H46.63Z"/></svg>