<svg id="Layer_1" data-name="Layer 1" xmlns="http://www.w3.org/2000/svg" xmlns:xlink="http://www.w3.org/1999/xlink" viewBox="0 0 752.84 690"><defs><style>.cls-1{fill:url(#linear-gradient);}.cls-2{fill:url(#linear-gradient-2);}.cls-3{fill:url(#linear-gradient-3);}.cls-4{fill:url(#linear-gradient-4);}</style><linearGradient id="linear-gradient" x1="123.58" y1="724.77" x2="876.42" y2="724.77" gradientUnits="userSpaceOnUse"><stop offset="0" stop-color="#00d4b0"/><stop offset="1" stop-color="#00f800"/></linearGradient><linearGradient id="linear-gradient-2" x1="286.65" y1="276.73" x2="715.39" y2="276.73" xlink:href="#linear-gradient"/><linearGradient id="linear-gradient-3" x1="178.58" y1="528.78" x2="412.77" y2="528.78" xlink:href="#linear-gradient"/><linearGradient id="linear-gradient-4" x1="584.07" y1="524" x2="821.09" y2="524" xlink:href="#linear-gradient"/></defs><title>logo</title><path class="cls-1" d="M234,786.36H771c-12.41-13.87-20.07-23.16-28.5-31.7-32.27-32.73-66.09-64.06-96.28-98.59-7.4-8.47-3.18-27.09-4.31-41,13.8-.76,33.56-7.81,40.45-1.28q94.9,89.93,185.49,184.37c17.77,18.5,6.24,42.34-19.23,46.23-6.92,1.06-14.11.5-21.18.5-219.22,0-438.45.38-657.67-.69-15.42-.07-30.8-10.59-46.19-16.25,6.33-15.12,9.06-33.65,19.61-44.76C194.3,729.32,247.47,677.46,300,625c14.6-14.6,30.72-30.92,51.06-11.61,21.71,20.61,6.22,38.32-9.62,54Q285.23,722.88,228.7,778.08,231.37,782.22,234,786.36Z" transform="translate(-123.58 -155)"/><path class="cls-2" d="M498.66,219.62c-52.15,53-99.09,100.84-146.12,148.56-7.43,7.54-14.16,18.24-23.23,21.09-11.7,3.68-32.57,5.8-36.64-.17-6.58-9.64-8.46-30.66-2.08-39.4C307.06,327.13,329,308.54,349,288.55c39.12-39.17,78.54-78,117.5-117.34,21.81-22,42.54-21.32,64.09.35q84.72,85.16,169.88,169.87c15.12,15.12,22.27,32.46,4.31,48.95-16.6,15.23-32.22,6.72-46.06-7.48C607,329.86,555.05,277.1,498.66,219.62Z" transform="translate(-123.58 -155)"/><path class="cls-3" d="M201.79,648.24c-7-5.6-18.84-10.49-21.43-18.41-3.09-9.5-2.37-25.56,3.79-31.93,60.36-62.44,121.62-124,184.45-184,6.79-6.48,29.48-5.9,36.81.53,7.11,6.23,10.08,30.08,4.32,36.12-61.58,64.49-125.16,127.06-188.55,189.8C217.42,644.08,210.65,644.77,201.79,648.24Z" transform="translate(-123.58 -155)"/><path class="cls-4" d="M607,401.54c12,7.74,22.81,12.41,30.63,20.12,56,55.22,111.39,111.08,167,166.7,14.57,14.57,24.65,31.14,7.14,48.73s-33.78,7.56-48.47-7.2C707,573.31,649.94,517.48,594.62,460c-8-8.36-11.25-24.7-10.43-36.93C584.66,416,597.73,409.81,607,401.54Z" transform="translate(-123.58 -155)"/></svg>